# xmcd CD database file
#
# Track frame offsets:
#	150
#	21075
#	48528
#	71952
#	101457
#	124962
#	141411
#	164632
#	187515
#	215077
#
# Disc length: 3141 seconds
#
# Revision: 0
# Processed by: cddbd v1.5.1PL2 Copyright (c) Steve Scherf et al.
# Submitted via: CDex 1.51
#
DISCID=980c430a
DTITLE=角松敏生 - THE PAST and THEN
DYEAR=2005
DGENRE=JPop
TTITLE0=RAIN MAN
TTITLE1=飴色の街
TTITLE2=リカー！！
TTITLE3=Can't You See
TTITLE4=氷の妖精
TTITLE5=Maybe It's Love Affair
TTITLE6=I'm Lovin' You
TTITLE7=Lady In The Night
TTITLE8=5000マイルのカウンター
TTITLE9=I'd Like To Be Your Fantasy
EXTD=YEAR: 2005
EXTT0=
EXTT1=
EXTT2=
EXTT3=
EXTT4=
EXTT5=
EXTT6=
EXTT7=
EXTT8=
EXTT9=
PLAYORDER=
